<?xml version="1.0" encoding="UTF-8" standalone="no"?><svg xmlns="http://www.w3.org/2000/svg" xmlns:xlink="http://www.w3.org/1999/xlink" contentScriptType="application/ecmascript" contentStyleType="text/css" height="1028px" preserveAspectRatio="none" style="width:464px;height:1028px;" version="1.1" viewBox="0 0 464 1028" width="464px" zoomAndPan="magnify"><defs><filter height="300%" id="f1gtj3s00aiho5" width="300%" x="-1" y="-1"><feGaussianBlur result="blurOut" stdDeviation="2.0"/><feColorMatrix in="blurOut" result="blurOut2" type="matrix" values="0 0 0 0 0 0 0 0 0 0 0 0 0 0 0 0 0 0 .4 0"/><feOffset dx="4.0" dy="4.0" in="blurOut2" result="blurOut3"/><feBlend in="SourceGraphic" in2="blurOut3" mode="normal"/></filter></defs><g><!--class Airline--><rect fill="#FEFECE" filter="url(#f1gtj3s00aiho5)" height="95.2188" id="Airline" style="stroke: #A80036; stroke-width: 1.5;" width="146" x="172.5" y="915.5"/><ellipse cx="222.25" cy="931.5" fill="#ADD1B2" rx="11" ry="11" style="stroke: #A80036; stroke-width: 1.0;"/><path d="M225.2188,937.1406 Q224.6406,937.4375 224,937.5781 Q223.3594,937.7344 222.6563,937.7344 Q220.1563,937.7344 218.8281,936.0938 Q217.5156,934.4375 217.5156,931.3125 Q217.5156,928.1875 218.8281,926.5313 Q220.1563,924.875 222.6563,924.875 Q223.3594,924.875 224,925.0313 Q224.6563,925.1875 225.2188,925.4844 L225.2188,928.2031 Q224.5938,927.625 224,927.3594 Q223.4063,927.0781 222.7813,927.0781 Q221.4375,927.0781 220.75,928.1563 Q220.0625,929.2188 220.0625,931.3125 Q220.0625,933.4063 220.75,934.4844 Q221.4375,935.5469 222.7813,935.5469 Q223.4063,935.5469 224,935.2813 Q224.5938,935 225.2188,934.4219 L225.2188,937.1406 Z "/><text fill="#000000" font-family="sans-serif" font-size="12" lengthAdjust="spacingAndGlyphs" textLength="38" x="242.75" y="935.6543">Airline</text><line style="stroke: #A80036; stroke-width: 1.5;" x1="173.5" x2="317.5" y1="947.5" y2="947.5"/><rect fill="none" height="6" style="stroke: #C82930; stroke-width: 1.0;" width="6" x="180.5" y="972.3047"/><text fill="#000000" font-family="sans-serif" font-size="11" lengthAdjust="spacingAndGlyphs" textLength="120" x="192.5" y="978.5151">calculator: Calculator</text><rect fill="none" height="6" style="stroke: #C82930; stroke-width: 1.0;" width="6" x="180.5" y="985.1094"/><text fill="#000000" font-family="sans-serif" font-size="11" lengthAdjust="spacingAndGlyphs" textLength="74" x="192.5" y="991.3198">name: String</text><rect fill="none" height="6" style="stroke: #C82930; stroke-width: 1.0;" width="6" x="180.5" y="997.9141"/><text fill="#000000" font-family="sans-serif" font-size="11" lengthAdjust="spacingAndGlyphs" textLength="69" x="192.5" y="1004.1245">code: String</text><line style="stroke: #A80036; stroke-width: 1.5;" x1="173.5" x2="218" y1="961.9023" y2="961.9023"/><text fill="#000000" font-family="sans-serif" font-size="11" lengthAdjust="spacingAndGlyphs" textLength="55" x="218" y="965.2104">attributes</text><line style="stroke: #A80036; stroke-width: 1.5;" x1="273" x2="317.5" y1="961.9023" y2="961.9023"/><!--class Airport--><rect fill="#FEFECE" filter="url(#f1gtj3s00aiho5)" height="108.0234" id="Airport" style="stroke: #A80036; stroke-width: 1.5;" width="131" x="6" y="909"/><ellipse cx="46.65" cy="925" fill="#ADD1B2" rx="11" ry="11" style="stroke: #A80036; stroke-width: 1.0;"/><path d="M49.6188,930.6406 Q49.0406,930.9375 48.4,931.0781 Q47.7594,931.2344 47.0563,931.2344 Q44.5563,931.2344 43.2281,929.5938 Q41.9156,927.9375 41.9156,924.8125 Q41.9156,921.6875 43.2281,920.0313 Q44.5563,918.375 47.0563,918.375 Q47.7594,918.375 48.4,918.5313 Q49.0563,918.6875 49.6188,918.9844 L49.6188,921.7031 Q48.9938,921.125 48.4,920.8594 Q47.8063,920.5781 47.1813,920.5781 Q45.8375,920.5781 45.15,921.6563 Q44.4625,922.7188 44.4625,924.8125 Q44.4625,926.9063 45.15,927.9844 Q45.8375,929.0469 47.1813,929.0469 Q47.8063,929.0469 48.4,928.7813 Q48.9938,928.5 49.6188,927.9219 L49.6188,930.6406 Z "/><text fill="#000000" font-family="sans-serif" font-size="12" lengthAdjust="spacingAndGlyphs" textLength="42" x="66.35" y="929.1543">Airport</text><line style="stroke: #A80036; stroke-width: 1.5;" x1="7" x2="136" y1="941" y2="941"/><rect fill="none" height="6" style="stroke: #C82930; stroke-width: 1.0;" width="6" x="14" y="965.8047"/><text fill="#000000" font-family="sans-serif" font-size="11" lengthAdjust="spacingAndGlyphs" textLength="69" x="26" y="972.0151">code: String</text><rect fill="none" height="6" style="stroke: #C82930; stroke-width: 1.0;" width="6" x="14" y="978.6094"/><text fill="#000000" font-family="sans-serif" font-size="11" lengthAdjust="spacingAndGlyphs" textLength="61" x="26" y="984.8198">city: String</text><rect fill="none" height="6" style="stroke: #C82930; stroke-width: 1.0;" width="6" x="14" y="991.4141"/><text fill="#000000" font-family="sans-serif" font-size="11" lengthAdjust="spacingAndGlyphs" textLength="84" x="26" y="997.6245">country: String</text><rect fill="none" height="6" style="stroke: #C82930; stroke-width: 1.0;" width="6" x="14" y="1004.2188"/><text fill="#000000" font-family="sans-serif" font-size="11" lengthAdjust="spacingAndGlyphs" textLength="105" x="26" y="1010.4292">description: String</text><line style="stroke: #A80036; stroke-width: 1.5;" x1="7" x2="44" y1="955.4023" y2="955.4023"/><text fill="#000000" font-family="sans-serif" font-size="11" lengthAdjust="spacingAndGlyphs" textLength="55" x="44" y="958.7104">attributes</text><line style="stroke: #A80036; stroke-width: 1.5;" x1="99" x2="136" y1="955.4023" y2="955.4023"/><!--class Flight--><rect fill="#FEFECE" filter="url(#f1gtj3s00aiho5)" height="159.2422" id="Flight" style="stroke: #A80036; stroke-width: 1.5;" width="144" x="126.5" y="689"/><ellipse cx="177.25" cy="705" fill="#ADD1B2" rx="11" ry="11" style="stroke: #A80036; stroke-width: 1.0;"/><path d="M180.2188,710.6406 Q179.6406,710.9375 179,711.0781 Q178.3594,711.2344 177.6563,711.2344 Q175.1563,711.2344 173.8281,709.5938 Q172.5156,707.9375 172.5156,704.8125 Q172.5156,701.6875 173.8281,700.0313 Q175.1563,698.375 177.6563,698.375 Q178.3594,698.375 179,698.5313 Q179.6563,698.6875 180.2188,698.9844 L180.2188,701.7031 Q179.5938,701.125 179,700.8594 Q178.4063,700.5781 177.7813,700.5781 Q176.4375,700.5781 175.75,701.6563 Q175.0625,702.7188 175.0625,704.8125 Q175.0625,706.9063 175.75,707.9844 Q176.4375,709.0469 177.7813,709.0469 Q178.4063,709.0469 179,708.7813 Q179.5938,708.5 180.2188,707.9219 L180.2188,710.6406 Z "/><text fill="#000000" font-family="sans-serif" font-size="12" lengthAdjust="spacingAndGlyphs" textLength="34" x="197.75" y="709.1543">Flight</text><line style="stroke: #A80036; stroke-width: 1.5;" x1="127.5" x2="269.5" y1="721" y2="721"/><rect fill="none" height="6" style="stroke: #C82930; stroke-width: 1.0;" width="6" x="134.5" y="745.8047"/><text fill="#000000" font-family="sans-serif" font-size="11" lengthAdjust="spacingAndGlyphs" textLength="95" x="146.5" y="752.0151">flightNumber: int</text><rect fill="none" height="6" style="stroke: #C82930; stroke-width: 1.0;" width="6" x="134.5" y="758.6094"/><text fill="#000000" font-family="sans-serif" font-size="11" lengthAdjust="spacingAndGlyphs" textLength="78" x="146.5" y="764.8198">airline: Airline</text><rect fill="none" height="6" style="stroke: #C82930; stroke-width: 1.0;" width="6" x="134.5" y="771.4141"/><text fill="#000000" font-family="sans-serif" font-size="11" lengthAdjust="spacingAndGlyphs" textLength="84" x="146.5" y="777.6245">airport: Airport</text><rect fill="none" height="6" style="stroke: #C82930; stroke-width: 1.0;" width="6" x="134.5" y="784.2188"/><text fill="#000000" font-family="sans-serif" font-size="11" lengthAdjust="spacingAndGlyphs" textLength="68" x="146.5" y="790.4292">capacity: int</text><rect fill="none" height="6" style="stroke: #C82930; stroke-width: 1.0;" width="6" x="134.5" y="797.0234"/><text fill="#000000" font-family="sans-serif" font-size="11" lengthAdjust="spacingAndGlyphs" textLength="116" x="146.5" y="803.2339">departureDate: Date</text><rect fill="none" height="6" style="stroke: #C82930; stroke-width: 1.0;" width="6" x="134.5" y="809.8281"/><text fill="#000000" font-family="sans-serif" font-size="11" lengthAdjust="spacingAndGlyphs" textLength="118" x="146.5" y="816.0386">departureTime: Date</text><rect fill="none" height="6" style="stroke: #C82930; stroke-width: 1.0;" width="6" x="134.5" y="822.6328"/><text fill="#000000" font-family="sans-serif" font-size="11" lengthAdjust="spacingAndGlyphs" textLength="96" x="146.5" y="828.8433">arrivalDate: Date</text><rect fill="none" height="6" style="stroke: #C82930; stroke-width: 1.0;" width="6" x="134.5" y="835.4375"/><text fill="#000000" font-family="sans-serif" font-size="11" lengthAdjust="spacingAndGlyphs" textLength="98" x="146.5" y="841.6479">arrivalTime: Date</text><line style="stroke: #A80036; stroke-width: 1.5;" x1="127.5" x2="171" y1="735.4023" y2="735.4023"/><text fill="#000000" font-family="sans-serif" font-size="11" lengthAdjust="spacingAndGlyphs" textLength="55" x="171" y="738.7104">attributes</text><line style="stroke: #A80036; stroke-width: 1.5;" x1="226" x2="269.5" y1="735.4023" y2="735.4023"/><!--class Ticket--><rect fill="#FEFECE" filter="url(#f1gtj3s00aiho5)" height="159.2422" id="Ticket" style="stroke: #A80036; stroke-width: 1.5;" width="157" x="125" y="469"/><ellipse cx="180.75" cy="485" fill="#ADD1B2" rx="11" ry="11" style="stroke: #A80036; stroke-width: 1.0;"/><path d="M183.7188,490.6406 Q183.1406,490.9375 182.5,491.0781 Q181.8594,491.2344 181.1563,491.2344 Q178.6563,491.2344 177.3281,489.5938 Q176.0156,487.9375 176.0156,484.8125 Q176.0156,481.6875 177.3281,480.0313 Q178.6563,478.375 181.1563,478.375 Q181.8594,478.375 182.5,478.5313 Q183.1563,478.6875 183.7188,478.9844 L183.7188,481.7031 Q183.0938,481.125 182.5,480.8594 Q181.9063,480.5781 181.2813,480.5781 Q179.9375,480.5781 179.25,481.6563 Q178.5625,482.7188 178.5625,484.8125 Q178.5625,486.9063 179.25,487.9844 Q179.9375,489.0469 181.2813,489.0469 Q181.9063,489.0469 182.5,488.7813 Q183.0938,488.5 183.7188,487.9219 L183.7188,490.6406 Z "/><text fill="#000000" font-family="sans-serif" font-size="12" lengthAdjust="spacingAndGlyphs" textLength="37" x="201.25" y="489.1543">Ticket</text><line style="stroke: #A80036; stroke-width: 1.5;" x1="126" x2="281" y1="501" y2="501"/><rect fill="none" height="6" style="stroke: #C82930; stroke-width: 1.0;" width="6" x="133" y="525.8047"/><text fill="#000000" font-family="sans-serif" font-size="11" lengthAdjust="spacingAndGlyphs" textLength="32" x="145" y="532.0151">id: int</text><rect fill="none" height="6" style="stroke: #C82930; stroke-width: 1.0;" width="6" x="133" y="538.6094"/><text fill="#000000" font-family="sans-serif" font-size="11" lengthAdjust="spacingAndGlyphs" textLength="66" x="145" y="544.8198">flight: Flight</text><rect fill="none" height="6" style="stroke: #C82930; stroke-width: 1.0;" width="6" x="133" y="551.4141"/><text fill="#000000" font-family="sans-serif" font-size="11" lengthAdjust="spacingAndGlyphs" textLength="130" x="145" y="557.6245">passanger: Passanger</text><rect fill="none" height="6" style="stroke: #C82930; stroke-width: 1.0;" width="6" x="133" y="564.2188"/><text fill="#000000" font-family="sans-serif" font-size="11" lengthAdjust="spacingAndGlyphs" textLength="125" x="145" y="570.4292">dateOfPurchase: Date</text><rect fill="none" height="6" style="stroke: #C82930; stroke-width: 1.0;" width="6" x="133" y="577.0234"/><text fill="#000000" font-family="sans-serif" font-size="11" lengthAdjust="spacingAndGlyphs" textLength="102" x="145" y="583.2339">flightClass: String</text><rect fill="none" height="6" style="stroke: #C82930; stroke-width: 1.0;" width="6" x="133" y="589.8281"/><text fill="#000000" font-family="sans-serif" font-size="11" lengthAdjust="spacingAndGlyphs" textLength="92" x="145" y="596.0386">seatNumber: int</text><rect fill="none" height="6" style="stroke: #C82930; stroke-width: 1.0;" width="6" x="133" y="602.6328"/><text fill="#000000" font-family="sans-serif" font-size="11" lengthAdjust="spacingAndGlyphs" textLength="131" x="145" y="608.8433">maxLuggageWeight: int</text><rect fill="none" height="6" style="stroke: #C82930; stroke-width: 1.0;" width="6" x="133" y="615.4375"/><text fill="#000000" font-family="sans-serif" font-size="11" lengthAdjust="spacingAndGlyphs" textLength="74" x="145" y="621.6479">price: double</text><line style="stroke: #A80036; stroke-width: 1.5;" x1="126" x2="176" y1="515.4023" y2="515.4023"/><text fill="#000000" font-family="sans-serif" font-size="11" lengthAdjust="spacingAndGlyphs" textLength="55" x="176" y="518.7104">attributes</text><line style="stroke: #A80036; stroke-width: 1.5;" x1="231" x2="281" y1="515.4023" y2="515.4023"/><!--class TripComposite--><rect fill="#FEFECE" filter="url(#f1gtj3s00aiho5)" height="92.3516" id="TripComposite" style="stroke: #A80036; stroke-width: 1.5;" width="128" x="27.5" y="8"/><ellipse cx="45.65" cy="26.9688" fill="#FF7700" rx="11" ry="11" style="stroke: #A80036; stroke-width: 1.0;"/><path d="M48.6188,32.6094 Q48.0406,32.9063 47.4,33.0469 Q46.7594,33.2031 46.0563,33.2031 Q43.5563,33.2031 42.2281,31.5625 Q40.9156,29.9063 40.9156,26.7813 Q40.9156,23.6563 42.2281,22 Q43.5563,20.3438 46.0563,20.3438 Q46.7594,20.3438 47.4,20.5 Q48.0563,20.6563 48.6188,20.9531 L48.6188,23.6719 Q47.9938,23.0938 47.4,22.8281 Q46.8063,22.5469 46.1813,22.5469 Q44.8375,22.5469 44.15,23.625 Q43.4625,24.6875 43.4625,26.7813 Q43.4625,28.875 44.15,29.9531 Q44.8375,31.0156 46.1813,31.0156 Q46.8063,31.0156 47.4,30.75 Q47.9938,30.4688 48.6188,29.8906 L48.6188,32.6094 Z "/><text fill="#000000" font-family="sans-serif" font-size="12" font-style="italic" lengthAdjust="spacingAndGlyphs" textLength="79" x="65.35" y="24.1387">«Composite»</text><text fill="#000000" font-family="sans-serif" font-size="12" lengthAdjust="spacingAndGlyphs" textLength="89" x="60.35" y="38.1074">TripComposite</text><line style="stroke: #A80036; stroke-width: 1.5;" x1="28.5" x2="154.5" y1="45.9375" y2="45.9375"/><rect fill="none" height="6" style="stroke: #C82930; stroke-width: 1.0;" width="6" x="35.5" y="53.9375"/><text fill="#000000" font-family="sans-serif" font-size="11" lengthAdjust="spacingAndGlyphs" textLength="86" x="47.5" y="60.1479">to: OneWayTrip</text><rect fill="none" height="6" style="stroke: #C82930; stroke-width: 1.0;" width="6" x="35.5" y="66.7422"/><text fill="#000000" font-family="sans-serif" font-size="11" lengthAdjust="spacingAndGlyphs" textLength="102" x="47.5" y="72.9526">from: OneWayTrip</text><rect fill="none" height="6" style="stroke: #C82930; stroke-width: 1.0;" width="6" x="35.5" y="79.5469"/><text fill="#000000" font-family="sans-serif" font-size="11" lengthAdjust="spacingAndGlyphs" textLength="99" x="47.5" y="85.7573">totalPrice: double</text><line style="stroke: #A80036; stroke-width: 1.5;" x1="28.5" x2="154.5" y1="92.3516" y2="92.3516"/><!--class OneWayTrip--><rect fill="#FEFECE" filter="url(#f1gtj3s00aiho5)" height="146.4375" id="OneWayTrip" style="stroke: #A80036; stroke-width: 1.5;" width="152" x="15.5" y="262"/><ellipse cx="51.65" cy="278" fill="#ADD1B2" rx="11" ry="11" style="stroke: #A80036; stroke-width: 1.0;"/><path d="M54.6188,283.6406 Q54.0406,283.9375 53.4,284.0781 Q52.7594,284.2344 52.0563,284.2344 Q49.5563,284.2344 48.2281,282.5938 Q46.9156,280.9375 46.9156,277.8125 Q46.9156,274.6875 48.2281,273.0313 Q49.5563,271.375 52.0563,271.375 Q52.7594,271.375 53.4,271.5313 Q54.0563,271.6875 54.6188,271.9844 L54.6188,274.7031 Q53.9938,274.125 53.4,273.8594 Q52.8063,273.5781 52.1813,273.5781 Q50.8375,273.5781 50.15,274.6563 Q49.4625,275.7188 49.4625,277.8125 Q49.4625,279.9063 50.15,280.9844 Q50.8375,282.0469 52.1813,282.0469 Q52.8063,282.0469 53.4,281.7813 Q53.9938,281.5 54.6188,280.9219 L54.6188,283.6406 Z "/><text fill="#000000" font-family="sans-serif" font-size="12" lengthAdjust="spacingAndGlyphs" textLength="73" x="70.35" y="282.1543">OneWayTrip</text><line style="stroke: #A80036; stroke-width: 1.5;" x1="16.5" x2="166.5" y1="294" y2="294"/><rect fill="none" height="6" style="stroke: #C82930; stroke-width: 1.0;" width="6" x="23.5" y="318.8047"/><text fill="#000000" font-family="sans-serif" font-size="11" lengthAdjust="spacingAndGlyphs" textLength="32" x="35.5" y="325.0151">id: int</text><rect fill="none" height="6" style="stroke: #C82930; stroke-width: 1.0;" width="6" x="23.5" y="331.6094"/><text fill="#000000" font-family="sans-serif" font-size="11" lengthAdjust="spacingAndGlyphs" textLength="115" x="35.5" y="337.8198">directFlight: boolean</text><rect fill="none" height="6" style="stroke: #C82930; stroke-width: 1.0;" width="6" x="23.5" y="344.4141"/><text fill="#000000" font-family="sans-serif" font-size="11" lengthAdjust="spacingAndGlyphs" textLength="126" x="35.5" y="350.6245">tickets: Array&lt;Ticket&gt;</text><rect fill="none" height="6" style="stroke: #C82930; stroke-width: 1.0;" width="6" x="23.5" y="357.2188"/><text fill="#000000" font-family="sans-serif" font-size="11" lengthAdjust="spacingAndGlyphs" textLength="85" x="35.5" y="363.4292">source: Airport</text><rect fill="none" height="6" style="stroke: #C82930; stroke-width: 1.0;" width="6" x="23.5" y="370.0234"/><text fill="#000000" font-family="sans-serif" font-size="11" lengthAdjust="spacingAndGlyphs" textLength="109" x="35.5" y="376.2339">destination: Airport</text><rect fill="none" height="6" style="stroke: #C82930; stroke-width: 1.0;" width="6" x="23.5" y="382.8281"/><text fill="#000000" font-family="sans-serif" font-size="11" lengthAdjust="spacingAndGlyphs" textLength="116" x="35.5" y="389.0386">departureDate: Date</text><rect fill="none" height="6" style="stroke: #C82930; stroke-width: 1.0;" width="6" x="23.5" y="395.6328"/><text fill="#000000" font-family="sans-serif" font-size="11" lengthAdjust="spacingAndGlyphs" textLength="96" x="35.5" y="401.8433">arrivalDate: Date</text><line style="stroke: #A80036; stroke-width: 1.5;" x1="16.5" x2="64" y1="308.4023" y2="308.4023"/><text fill="#000000" font-family="sans-serif" font-size="11" lengthAdjust="spacingAndGlyphs" textLength="55" x="64" y="311.7104">attributes</text><line style="stroke: #A80036; stroke-width: 1.5;" x1="119" x2="166.5" y1="308.4023" y2="308.4023"/><!--class Passanger--><rect fill="#FEFECE" filter="url(#f1gtj3s00aiho5)" height="133.6328" id="Passanger" style="stroke: #A80036; stroke-width: 1.5;" width="148" x="305.5" y="701.5"/><ellipse cx="342.55" cy="717.5" fill="#ADD1B2" rx="11" ry="11" style="stroke: #A80036; stroke-width: 1.0;"/><path d="M345.5188,723.1406 Q344.9406,723.4375 344.3,723.5781 Q343.6594,723.7344 342.9563,723.7344 Q340.4563,723.7344 339.1281,722.0938 Q337.8156,720.4375 337.8156,717.3125 Q337.8156,714.1875 339.1281,712.5313 Q340.4563,710.875 342.9563,710.875 Q343.6594,710.875 344.3,711.0313 Q344.9563,711.1875 345.5188,711.4844 L345.5188,714.2031 Q344.8938,713.625 344.3,713.3594 Q343.7063,713.0781 343.0813,713.0781 Q341.7375,713.0781 341.05,714.1563 Q340.3625,715.2188 340.3625,717.3125 Q340.3625,719.4063 341.05,720.4844 Q341.7375,721.5469 343.0813,721.5469 Q343.7063,721.5469 344.3,721.2813 Q344.8938,721 345.5188,720.4219 L345.5188,723.1406 Z "/><text fill="#000000" font-family="sans-serif" font-size="12" lengthAdjust="spacingAndGlyphs" textLength="67" x="361.45" y="721.6543">Passanger</text><line style="stroke: #A80036; stroke-width: 1.5;" x1="306.5" x2="452.5" y1="733.5" y2="733.5"/><rect fill="none" height="6" style="stroke: #C82930; stroke-width: 1.0;" width="6" x="313.5" y="758.3047"/><text fill="#000000" font-family="sans-serif" font-size="11" lengthAdjust="spacingAndGlyphs" textLength="97" x="325.5" y="764.5151">firstname: String</text><rect fill="none" height="6" style="stroke: #C82930; stroke-width: 1.0;" width="6" x="313.5" y="771.1094"/><text fill="#000000" font-family="sans-serif" font-size="11" lengthAdjust="spacingAndGlyphs" textLength="93" x="325.5" y="777.3198">surname: String</text><rect fill="none" height="6" style="stroke: #C82930; stroke-width: 1.0;" width="6" x="313.5" y="783.9141"/><text fill="#000000" font-family="sans-serif" font-size="11" lengthAdjust="spacingAndGlyphs" textLength="99" x="325.5" y="790.1245">dateOfBirth: Date</text><rect fill="none" height="6" style="stroke: #C82930; stroke-width: 1.0;" width="6" x="313.5" y="796.7188"/><text fill="#000000" font-family="sans-serif" font-size="11" lengthAdjust="spacingAndGlyphs" textLength="122" x="325.5" y="802.9292">phoneNumber: String</text><rect fill="none" height="6" style="stroke: #C82930; stroke-width: 1.0;" width="6" x="313.5" y="809.5234"/><text fill="#000000" font-family="sans-serif" font-size="11" lengthAdjust="spacingAndGlyphs" textLength="73" x="325.5" y="815.7339">email: String</text><rect fill="none" height="6" style="stroke: #C82930; stroke-width: 1.0;" width="6" x="313.5" y="822.3281"/><text fill="#000000" font-family="sans-serif" font-size="11" lengthAdjust="spacingAndGlyphs" textLength="97" x="325.5" y="828.5386">idOrPesel: String</text><line style="stroke: #A80036; stroke-width: 1.5;" x1="306.5" x2="352" y1="747.9023" y2="747.9023"/><text fill="#000000" font-family="sans-serif" font-size="11" lengthAdjust="spacingAndGlyphs" textLength="55" x="352" y="751.2104">attributes</text><line style="stroke: #A80036; stroke-width: 1.5;" x1="407" x2="452.5" y1="747.9023" y2="747.9023"/><path d="M186,161 L186,201.2656 L345,201.2656 L345,171 L335,161 L186,161 " fill="#FBFB77" filter="url(#f1gtj3s00aiho5)" style="stroke: #A80036; stroke-width: 1.0;"/><path d="M335,161 L335,171 L345,171 L335,161 " fill="#FBFB77" style="stroke: #A80036; stroke-width: 1.0;"/><text fill="#000000" font-family="sans-serif" font-size="13" lengthAdjust="spacingAndGlyphs" textLength="138" x="192" y="178.0669">Depends if is one way</text><text fill="#000000" font-family="sans-serif" font-size="13" lengthAdjust="spacingAndGlyphs" textLength="92" x="192" y="193.1997">or two way trip</text><!--reverse link TripComposite to OneWayTrip--><path d="M90.1933,113.3431 C89.9059,128.8527 89.6444,145.5527 89.5,161 C89.1909,194.0789 89.5121,230.6943 89.981,261.7688 " fill="none" id="TripComposite&lt;-OneWayTrip" style="stroke: #A80036; stroke-width: 1.0;"/><polygon fill="#A80036" points="90.4502,100.0812,86.3346,106.0025,90.2176,112.0789,94.3331,106.1576,90.4502,100.0812" style="stroke: #A80036; stroke-width: 1.0;"/><text fill="#000000" font-family="sans-serif" font-size="13" lengthAdjust="spacingAndGlyphs" textLength="64" x="90.5" y="185.5669">has 1 or 2</text><polygon fill="#000000" points="118,194.6328,121,200.6328,124,194.6328,118,194.6328" style="stroke: #000000; stroke-width: 1.0;"/><!--link TripComposite to TripNote--><path d="M154.8102,100.2092 C183.3781,121.0605 215.635,144.6043 237.9247,160.8732 " fill="none" id="TripComposite-TripNote" style="stroke: #A80036; stroke-width: 1.0; stroke-dasharray: 7.0,7.0;"/><!--link TripNote to OneWayTrip--><path d="M242.7525,201.1328 C223.5919,218.0911 195.0366,243.3641 167.8822,267.3973 " fill="none" id="TripNote-OneWayTrip" style="stroke: #A80036; stroke-width: 1.0; stroke-dasharray: 7.0,7.0;"/><!--reverse link OneWayTrip to Ticket--><path d="M135.9868,419.803 C144.4691,435.9723 153.3196,452.8436 161.7138,468.8451 " fill="none" id="OneWayTrip&lt;-Ticket" style="stroke: #A80036; stroke-width: 1.0;"/><polygon fill="#A80036" points="129.8874,408.1759,129.1325,415.3474,135.462,418.8025,136.2169,411.631,129.8874,408.1759" style="stroke: #A80036; stroke-width: 1.0;"/><text fill="#000000" font-family="sans-serif" font-size="13" lengthAdjust="spacingAndGlyphs" textLength="23" x="109.6602" y="428.5468">1..*</text><!--reverse link OneWayTrip to Airport--><path d="M88.748,421.4114 C84.5563,553.032 76.6933,799.9318 73.222,908.9295 " fill="none" id="OneWayTrip&lt;-Airport" style="stroke: #A80036; stroke-width: 1.0;"/><polygon fill="#FFFFFF" points="89.1666,408.2686,84.9776,414.1382,88.7846,420.2625,92.9736,414.3929,89.1666,408.2686" style="stroke: #A80036; stroke-width: 1.0;"/><!--reverse link Ticket to Flight--><path d="M201.3905,641.3197 C201.0326,657.065 200.6638,673.2919 200.3144,688.6666 " fill="none" id="Ticket&lt;-Flight" style="stroke: #A80036; stroke-width: 1.0;"/><polygon fill="#FFFFFF" points="201.6878,628.2361,197.5524,634.1436,201.415,640.233,205.5503,634.3255,201.6878,628.2361" style="stroke: #A80036; stroke-width: 1.0;"/><!--reverse link Ticket to Passanger--><path d="M275.4693,638.4616 C292.2883,659.4854 309.9159,681.5199 325.7814,701.3517 " fill="none" id="Ticket&lt;-Passanger" style="stroke: #A80036; stroke-width: 1.0;"/><polygon fill="#A80036" points="267.2889,628.2361,267.9136,635.4201,274.7853,637.6065,274.1606,630.4225,267.2889,628.2361" style="stroke: #A80036; stroke-width: 1.0;"/><!--reverse link Flight to Airport--><path d="M139.2236,859.2816 C128.1248,876.2793 116.8532,893.5417 106.7731,908.9794 " fill="none" id="Flight&lt;-Airport" style="stroke: #A80036; stroke-width: 1.0;"/><polygon fill="#FFFFFF" points="146.4778,848.1718,139.8482,851.0087,139.917,858.2195,146.5467,855.3826,146.4778,848.1718" style="stroke: #A80036; stroke-width: 1.0;"/><!--reverse link Flight to Airline--><path d="M220.8069,860.8127 C225.3597,879.6535 229.9724,898.7421 233.959,915.24 " fill="none" id="Flight&lt;-Airline" style="stroke: #A80036; stroke-width: 1.0;"/><polygon fill="#FFFFFF" points="217.7523,848.1718,215.2736,854.9435,220.571,859.8361,223.0497,853.0644,217.7523,848.1718" style="stroke: #A80036; stroke-width: 1.0;"/><!--
@startuml Main Model Diagaram (simplified)

class Airline {
  __ attributes __
  -calculator: Calculator
  -name: String
  -code: String
}

class Airport {
  __ attributes __
  -code: String
  -city: String
  -country: String
  -description: String
}

class Flight {
  __ attributes __
  -flightNumber: int
  -airline: Airline
  -airport: Airport
  -capacity: int
  -departureDate: Date
  -departureTime: Date
  -arrivalDate: Date
  -arrivalTime: Date
}

class Ticket {
  __ attributes __
  -id: int
  -flight: Flight
  -passanger: Passanger
  -dateOfPurchase: Date
  -flightClass: String
  -seatNumber: int
  -maxLuggageWeight: int
  -price: double
}

class TripComposite << (C,#FF7700) Composite >> {
  -to: OneWayTrip
  -from: OneWayTrip
  -totalPrice: double
}

class OneWayTrip {
  __ attributes __
  -id: int
  -directFlight: boolean
  -tickets: Array<Ticket>
  -source: Airport
  -destination: Airport
  -departureDate: Date
  -arrivalDate: Date
}

class Passanger {
  __ attributes __
  -firstname: String
  -surname: String
  -dateOfBirth: Date
  -phoneNumber: String
  -email: String
  -idOrPesel: String
}

TripComposite *- - OneWayTrip: has 1 or 2 >
note "Depends if is one way\nor two way trip" as TripNote
TripComposite .. TripNote
TripNote .. OneWayTrip
OneWayTrip "1..*" *- - Ticket
OneWayTrip o- - Airport
Ticket o- - Flight
Ticket *- - Passanger
Flight o- - Airport
Flight o- - Airline


@enduml

PlantUML version 1.2019.09(Mon Aug 26 18:19:51 CEST 2019)
(GPL source distribution)
Java Runtime: OpenJDK Runtime Environment
JVM: OpenJDK 64-Bit Server VM
Java Version: 1.8.0_252-8u252-b09-1~18.04-b09
Operating System: Linux
OS Version: 4.15.0-99-generic
Default Encoding: UTF-8
Language: pl
Country: PL
--></g></svg>